# xmcd CD database file
#
# Track frame offsets:
#	150
#	16330
#	33964
#	62244
#	86842
#	120584
#	144664
#	174349
#	207677
#
# Disc length: 2876 seconds
#
# Revision: 0
# Processed by: cddbd v1.5.1PL0 Copyright (c) Steve Scherf et al.
# Submitted via: CDex 1.51
#
DISCID=7d0b3a09
DTITLE=Gabor Gado - The Second Coming
DYEAR=2004
DGENRE=Jazz
TTITLE0=Kolyma (in Memory of Variam Shalamov)
TTITLE1=Hommage à A Schnittke
TTITLE2=Jonathan Livingston
TTITLE3=Kovilag (in Memory of Tadeusz Borowski)
TTITLE4=Strindberg
TTITLE5=Psyché
TTITLE6=The 33rd Year
TTITLE7=The Second Coming
TTITLE8=Voronezh, 1934 (to Anna Ahmatova and Osip Mandelstam)
EXTD=YEAR: 2004
EXTT0=
EXTT1=
EXTT2=
EXTT3=
EXTT4=
EXTT5=
EXTT6=
EXTT7=
EXTT8=
PLAYORDER=
